<?xml version="1.0" encoding="UTF-8"?>
<svg id="Layer_2" data-name="Layer 2" xmlns="http://www.w3.org/2000/svg" viewBox="0 0 765.68 156.17">
  <defs>
    <style>
      .cls-1 {
        fill: #4b50d6;
      }
    </style>
  </defs>
  <g id="Layer_1-2" data-name="Layer 1">
    <g>
      <g>
        <path class="cls-1" d="m171.76,125V13.32h41.76c10.67,0,18.8,2.98,24.4,8.94,5.6,5.96,8.4,14.15,8.4,24.58s-2.8,18.62-8.4,24.58-13.73,8.94-24.4,8.94h-23.84v44.64h-17.92Zm17.92-59.36h21.12c11.09,0,16.64-5.14,16.64-15.43v-6.91c0-10.18-5.55-15.27-16.64-15.27h-21.12v37.6Z"/>
        <path class="cls-1" d="m258.48,110.76h21.92v-54.08h-21.92v-14.24h39.36v21.92h.96c.75-2.88,1.81-5.65,3.2-8.32,1.38-2.67,3.15-4.98,5.28-6.96,2.13-1.97,4.75-3.57,7.84-4.8,3.09-1.22,6.72-1.84,10.88-1.84h9.92v16.64h-16.32c-6.4,0-11.63,1.89-15.68,5.66-4.06,3.77-6.08,8.85-6.08,15.23v30.78h29.92v14.24h-69.28v-14.24Z"/>
        <path class="cls-1" d="m382.32,126.92c-6.08,0-11.55-1.02-16.4-3.04-4.85-2.02-8.96-4.9-12.32-8.64-3.36-3.73-5.95-8.27-7.76-13.6-1.81-5.33-2.72-11.31-2.72-17.92s.91-12.59,2.72-17.92c1.81-5.33,4.4-9.86,7.76-13.6,3.36-3.73,7.47-6.61,12.32-8.64,4.85-2.02,10.32-3.04,16.4-3.04s11.54,1.02,16.4,3.04c4.85,2.03,8.96,4.91,12.32,8.64,3.36,3.73,5.95,8.27,7.76,13.6,1.81,5.33,2.72,11.31,2.72,17.92s-.91,12.59-2.72,17.92c-1.82,5.33-4.4,9.87-7.76,13.6-3.36,3.73-7.47,6.61-12.32,8.64-4.85,2.02-10.32,3.04-16.4,3.04Zm0-13.76c6.4,0,11.49-1.95,15.28-5.84,3.79-3.89,5.68-9.68,5.68-17.36v-12.48c0-7.68-1.9-13.46-5.68-17.36-3.79-3.89-8.88-5.84-15.28-5.84s-11.5,1.95-15.28,5.84c-3.79,3.9-5.68,9.68-5.68,17.36v12.48c0,7.68,1.89,13.47,5.68,17.36,3.78,3.9,8.88,5.84,15.28,5.84Z"/>
        <path class="cls-1" d="m435.76,125V13.32h41.76c10.67,0,18.8,2.98,24.4,8.94,5.6,5.96,8.4,14.15,8.4,24.58s-2.8,18.62-8.4,24.58c-5.6,5.96-13.73,8.94-24.4,8.94h-23.84v44.64h-17.92Zm17.92-59.36h21.12c11.09,0,16.64-5.14,16.64-15.43v-6.91c0-10.18-5.55-15.27-16.64-15.27h-21.12v37.6Z"/>
        <path class="cls-1" d="m518.32,110.76h27.36V20.84h-27.36V6.6h44.8v104.16h27.36v14.24h-72.16v-14.24Z"/>
        <path class="cls-1" d="m673.04,125c-5.01,0-8.77-1.28-11.28-3.84-2.51-2.56-4.03-5.92-4.56-10.08h-.8c-1.6,5.02-4.51,8.91-8.72,11.68-4.22,2.77-9.58,4.16-16.08,4.16-8.43,0-15.15-2.21-20.16-6.64-5.01-4.42-7.52-10.53-7.52-18.32s2.96-14.1,8.88-18.32c5.92-4.21,15.01-6.32,27.28-6.32h15.84v-6.4c0-11.2-5.92-16.8-17.76-16.8-5.33,0-9.66,1.04-12.96,3.12-3.31,2.08-6.08,4.83-8.32,8.24l-10.4-8.48c2.34-4.48,6.29-8.35,11.84-11.6,5.54-3.25,12.69-4.88,21.44-4.88,10.45,0,18.67,2.51,24.64,7.52,5.97,5.02,8.96,12.27,8.96,21.76v41.44h10.4v13.76h-10.72Zm-36.48-10.88c5.65,0,10.29-1.27,13.92-3.81,3.62-2.55,5.44-5.83,5.44-9.86v-11.92h-15.52c-12.59,0-18.88,3.77-18.88,11.29v3.18c0,3.71,1.33,6.49,4,8.35,2.67,1.85,6.34,2.78,11.04,2.78Z"/>
        <path class="cls-1" d="m695.76,125V42.44h17.44v14.08h.8c.85-2.13,1.95-4.19,3.28-6.16,1.33-1.97,2.96-3.68,4.88-5.12,1.92-1.44,4.16-2.59,6.72-3.44,2.56-.85,5.55-1.28,8.96-1.28,8.32,0,15.04,2.72,20.16,8.16s7.68,13.17,7.68,23.2v53.12h-17.44v-50.56c0-13.12-5.71-19.68-17.12-19.68-2.24,0-4.43.3-6.56.88-2.13.59-4.06,1.47-5.76,2.64-1.71,1.18-3.07,2.67-4.08,4.48-1.02,1.82-1.52,3.9-1.52,6.24v56h-17.44Z"/>
      </g>
      <path class="cls-1" d="m78.92,0h-25.85C23.76,0,0,23.76,0,53.08v103.09h17v-24.17h61.92c29.31,0,53.08-23.76,53.08-53.08v-25.85C132,23.76,108.24,0,78.92,0Zm36.08,78.92c0,19.89-16.18,36.08-36.08,36.08H17v-61.92c0-19.89,16.18-36.08,36.08-36.08h25.85c19.89,0,36.08,16.18,36.08,36.08v25.85Z"/>
    </g>
  </g>
</svg>